<mxfile host="65bd71144e">
    <diagram id="2jXXKS4MsH2hTnXp9MCN" name="Page-1">
        <mxGraphModel dx="591" dy="486" grid="1" gridSize="10" guides="1" tooltips="1" connect="1" arrows="1" fold="1" page="1" pageScale="1" pageWidth="850" pageHeight="1100" math="0" shadow="0">
            <root>
                <mxCell id="0"/>
                <mxCell id="1" parent="0"/>
                <mxCell id="ya6E0TkoqodQedfXfJdZ-1" value="Users" style="shape=table;startSize=30;container=1;collapsible=1;childLayout=tableLayout;fixedRows=1;rowLines=0;fontStyle=1;align=center;resizeLast=1;" parent="1" vertex="1">
                    <mxGeometry x="320" y="330" width="180" height="200" as="geometry"/>
                </mxCell>
                <mxCell id="ya6E0TkoqodQedfXfJdZ-2" value="" style="shape=partialRectangle;collapsible=0;dropTarget=0;pointerEvents=0;fillColor=none;top=0;left=0;bottom=1;right=0;points=[[0,0.5],[1,0.5]];portConstraint=eastwest;" parent="ya6E0TkoqodQedfXfJdZ-1" vertex="1">
                    <mxGeometry y="30" width="180" height="30" as="geometry"/>
                </mxCell>
                <mxCell id="ya6E0TkoqodQedfXfJdZ-3" value="PK" style="shape=partialRectangle;connectable=0;fillColor=none;top=0;left=0;bottom=0;right=0;fontStyle=1;overflow=hidden;" parent="ya6E0TkoqodQedfXfJdZ-2" vertex="1">
                    <mxGeometry width="30" height="30" as="geometry"/>
                </mxCell>
                <mxCell id="ya6E0TkoqodQedfXfJdZ-4" value="ID SERIAL" style="shape=partialRectangle;connectable=0;fillColor=none;top=0;left=0;bottom=0;right=0;align=left;spacingLeft=6;fontStyle=5;overflow=hidden;" parent="ya6E0TkoqodQedfXfJdZ-2" vertex="1">
                    <mxGeometry x="30" width="150" height="30" as="geometry"/>
                </mxCell>
                <mxCell id="ya6E0TkoqodQedfXfJdZ-5" value="" style="shape=partialRectangle;collapsible=0;dropTarget=0;pointerEvents=0;fillColor=none;top=0;left=0;bottom=0;right=0;points=[[0,0.5],[1,0.5]];portConstraint=eastwest;" parent="ya6E0TkoqodQedfXfJdZ-1" vertex="1">
                    <mxGeometry y="60" width="180" height="30" as="geometry"/>
                </mxCell>
                <mxCell id="ya6E0TkoqodQedfXfJdZ-6" value="" style="shape=partialRectangle;connectable=0;fillColor=none;top=0;left=0;bottom=0;right=0;editable=1;overflow=hidden;" parent="ya6E0TkoqodQedfXfJdZ-5" vertex="1">
                    <mxGeometry width="30" height="30" as="geometry"/>
                </mxCell>
                <mxCell id="ya6E0TkoqodQedfXfJdZ-7" value="Name VARCHAR(255)" style="shape=partialRectangle;connectable=0;fillColor=none;top=0;left=0;bottom=0;right=0;align=left;spacingLeft=6;overflow=hidden;" parent="ya6E0TkoqodQedfXfJdZ-5" vertex="1">
                    <mxGeometry x="30" width="150" height="30" as="geometry"/>
                </mxCell>
                <mxCell id="ya6E0TkoqodQedfXfJdZ-8" value="" style="shape=partialRectangle;collapsible=0;dropTarget=0;pointerEvents=0;fillColor=none;top=0;left=0;bottom=0;right=0;points=[[0,0.5],[1,0.5]];portConstraint=eastwest;" parent="ya6E0TkoqodQedfXfJdZ-1" vertex="1">
                    <mxGeometry y="90" width="180" height="30" as="geometry"/>
                </mxCell>
                <mxCell id="ya6E0TkoqodQedfXfJdZ-9" value="" style="shape=partialRectangle;connectable=0;fillColor=none;top=0;left=0;bottom=0;right=0;editable=1;overflow=hidden;" parent="ya6E0TkoqodQedfXfJdZ-8" vertex="1">
                    <mxGeometry width="30" height="30" as="geometry"/>
                </mxCell>
                <mxCell id="ya6E0TkoqodQedfXfJdZ-10" value="phone # SMALLINT" style="shape=partialRectangle;connectable=0;fillColor=none;top=0;left=0;bottom=0;right=0;align=left;spacingLeft=6;overflow=hidden;" parent="ya6E0TkoqodQedfXfJdZ-8" vertex="1">
                    <mxGeometry x="30" width="150" height="30" as="geometry"/>
                </mxCell>
                <mxCell id="ya6E0TkoqodQedfXfJdZ-11" value="" style="shape=partialRectangle;collapsible=0;dropTarget=0;pointerEvents=0;fillColor=none;top=0;left=0;bottom=0;right=0;points=[[0,0.5],[1,0.5]];portConstraint=eastwest;" parent="ya6E0TkoqodQedfXfJdZ-1" vertex="1">
                    <mxGeometry y="120" width="180" height="30" as="geometry"/>
                </mxCell>
                <mxCell id="ya6E0TkoqodQedfXfJdZ-12" value="" style="shape=partialRectangle;connectable=0;fillColor=none;top=0;left=0;bottom=0;right=0;editable=1;overflow=hidden;" parent="ya6E0TkoqodQedfXfJdZ-11" vertex="1">
                    <mxGeometry width="30" height="30" as="geometry"/>
                </mxCell>
                <mxCell id="ya6E0TkoqodQedfXfJdZ-13" value="&#10;email VARCHAR(255)" style="shape=partialRectangle;connectable=0;fillColor=none;top=0;left=0;bottom=0;right=0;align=left;spacingLeft=6;overflow=hidden;" parent="ya6E0TkoqodQedfXfJdZ-11" vertex="1">
                    <mxGeometry x="30" width="150" height="30" as="geometry"/>
                </mxCell>
                <mxCell id="ya6E0TkoqodQedfXfJdZ-14" value="" style="shape=partialRectangle;collapsible=0;dropTarget=0;pointerEvents=0;fillColor=none;top=0;left=0;bottom=0;right=0;points=[[0,0.5],[1,0.5]];portConstraint=eastwest;" parent="ya6E0TkoqodQedfXfJdZ-1" vertex="1">
                    <mxGeometry y="150" width="180" height="30" as="geometry"/>
                </mxCell>
                <mxCell id="ya6E0TkoqodQedfXfJdZ-15" value="" style="shape=partialRectangle;connectable=0;fillColor=none;top=0;left=0;bottom=0;right=0;editable=1;overflow=hidden;" parent="ya6E0TkoqodQedfXfJdZ-14" vertex="1">
                    <mxGeometry width="30" height="30" as="geometry"/>
                </mxCell>
                <mxCell id="ya6E0TkoqodQedfXfJdZ-16" value="Â password VARCHAR(64)" style="shape=partialRectangle;connectable=0;fillColor=none;top=0;left=0;bottom=0;right=0;align=left;spacingLeft=6;overflow=hidden;" parent="ya6E0TkoqodQedfXfJdZ-14" vertex="1">
                    <mxGeometry x="30" width="150" height="30" as="geometry"/>
                </mxCell>
                <mxCell id="ya6E0TkoqodQedfXfJdZ-17" value="Dishes" style="shape=table;startSize=30;container=1;collapsible=1;childLayout=tableLayout;fixedRows=1;rowLines=0;fontStyle=1;align=center;resizeLast=1;" parent="1" vertex="1">
                    <mxGeometry x="60" y="70" width="200" height="210" as="geometry"/>
                </mxCell>
                <mxCell id="ya6E0TkoqodQedfXfJdZ-18" value="" style="shape=partialRectangle;collapsible=0;dropTarget=0;pointerEvents=0;fillColor=none;top=0;left=0;bottom=1;right=0;points=[[0,0.5],[1,0.5]];portConstraint=eastwest;" parent="ya6E0TkoqodQedfXfJdZ-17" vertex="1">
                    <mxGeometry y="30" width="200" height="30" as="geometry"/>
                </mxCell>
                <mxCell id="ya6E0TkoqodQedfXfJdZ-19" value="PK" style="shape=partialRectangle;connectable=0;fillColor=none;top=0;left=0;bottom=0;right=0;fontStyle=1;overflow=hidden;" parent="ya6E0TkoqodQedfXfJdZ-18" vertex="1">
                    <mxGeometry width="30" height="30" as="geometry"/>
                </mxCell>
                <mxCell id="ya6E0TkoqodQedfXfJdZ-20" value="ID SERIAL" style="shape=partialRectangle;connectable=0;fillColor=none;top=0;left=0;bottom=0;right=0;align=left;spacingLeft=6;fontStyle=5;overflow=hidden;" parent="ya6E0TkoqodQedfXfJdZ-18" vertex="1">
                    <mxGeometry x="30" width="170" height="30" as="geometry"/>
                </mxCell>
                <mxCell id="ya6E0TkoqodQedfXfJdZ-21" value="" style="shape=partialRectangle;collapsible=0;dropTarget=0;pointerEvents=0;fillColor=none;top=0;left=0;bottom=0;right=0;points=[[0,0.5],[1,0.5]];portConstraint=eastwest;" parent="ya6E0TkoqodQedfXfJdZ-17" vertex="1">
                    <mxGeometry y="60" width="200" height="30" as="geometry"/>
                </mxCell>
                <mxCell id="ya6E0TkoqodQedfXfJdZ-22" value="" style="shape=partialRectangle;connectable=0;fillColor=none;top=0;left=0;bottom=0;right=0;editable=1;overflow=hidden;" parent="ya6E0TkoqodQedfXfJdZ-21" vertex="1">
                    <mxGeometry width="30" height="30" as="geometry"/>
                </mxCell>
                <mxCell id="ya6E0TkoqodQedfXfJdZ-23" value="dish_name VARCHAR(255)" style="shape=partialRectangle;connectable=0;fillColor=none;top=0;left=0;bottom=0;right=0;align=left;spacingLeft=6;overflow=hidden;" parent="ya6E0TkoqodQedfXfJdZ-21" vertex="1">
                    <mxGeometry x="30" width="170" height="30" as="geometry"/>
                </mxCell>
                <mxCell id="ya6E0TkoqodQedfXfJdZ-24" value="" style="shape=partialRectangle;collapsible=0;dropTarget=0;pointerEvents=0;fillColor=none;top=0;left=0;bottom=0;right=0;points=[[0,0.5],[1,0.5]];portConstraint=eastwest;" parent="ya6E0TkoqodQedfXfJdZ-17" vertex="1">
                    <mxGeometry y="90" width="200" height="30" as="geometry"/>
                </mxCell>
                <mxCell id="ya6E0TkoqodQedfXfJdZ-25" value="" style="shape=partialRectangle;connectable=0;fillColor=none;top=0;left=0;bottom=0;right=0;editable=1;overflow=hidden;" parent="ya6E0TkoqodQedfXfJdZ-24" vertex="1">
                    <mxGeometry width="30" height="30" as="geometry"/>
                </mxCell>
                <mxCell id="ya6E0TkoqodQedfXfJdZ-26" value="description TEXT" style="shape=partialRectangle;connectable=0;fillColor=none;top=0;left=0;bottom=0;right=0;align=left;spacingLeft=6;overflow=hidden;" parent="ya6E0TkoqodQedfXfJdZ-24" vertex="1">
                    <mxGeometry x="30" width="170" height="30" as="geometry"/>
                </mxCell>
                <mxCell id="ya6E0TkoqodQedfXfJdZ-27" value="" style="shape=partialRectangle;collapsible=0;dropTarget=0;pointerEvents=0;fillColor=none;top=0;left=0;bottom=0;right=0;points=[[0,0.5],[1,0.5]];portConstraint=eastwest;" parent="ya6E0TkoqodQedfXfJdZ-17" vertex="1">
                    <mxGeometry y="120" width="200" height="30" as="geometry"/>
                </mxCell>
                <mxCell id="ya6E0TkoqodQedfXfJdZ-28" value="" style="shape=partialRectangle;connectable=0;fillColor=none;top=0;left=0;bottom=0;right=0;editable=1;overflow=hidden;" parent="ya6E0TkoqodQedfXfJdZ-27" vertex="1">
                    <mxGeometry width="30" height="30" as="geometry"/>
                </mxCell>
                <mxCell id="ya6E0TkoqodQedfXfJdZ-29" value="price INTEGER" style="shape=partialRectangle;connectable=0;fillColor=none;top=0;left=0;bottom=0;right=0;align=left;spacingLeft=6;overflow=hidden;" parent="ya6E0TkoqodQedfXfJdZ-27" vertex="1">
                    <mxGeometry x="30" width="170" height="30" as="geometry"/>
                </mxCell>
                <mxCell id="ya6E0TkoqodQedfXfJdZ-30" value="" style="shape=partialRectangle;collapsible=0;dropTarget=0;pointerEvents=0;fillColor=none;top=0;left=0;bottom=0;right=0;points=[[0,0.5],[1,0.5]];portConstraint=eastwest;" parent="ya6E0TkoqodQedfXfJdZ-17" vertex="1">
                    <mxGeometry y="150" width="200" height="30" as="geometry"/>
                </mxCell>
                <mxCell id="ya6E0TkoqodQedfXfJdZ-31" value="" style="shape=partialRectangle;connectable=0;fillColor=none;top=0;left=0;bottom=0;right=0;editable=1;overflow=hidden;" parent="ya6E0TkoqodQedfXfJdZ-30" vertex="1">
                    <mxGeometry width="30" height="30" as="geometry"/>
                </mxCell>
                <mxCell id="ya6E0TkoqodQedfXfJdZ-32" value="Â image TEXT" style="shape=partialRectangle;connectable=0;fillColor=none;top=0;left=0;bottom=0;right=0;align=left;spacingLeft=6;overflow=hidden;" parent="ya6E0TkoqodQedfXfJdZ-30" vertex="1">
                    <mxGeometry x="30" width="170" height="30" as="geometry"/>
                </mxCell>
                <mxCell id="ya6E0TkoqodQedfXfJdZ-33" value="" style="shape=partialRectangle;collapsible=0;dropTarget=0;pointerEvents=0;fillColor=none;top=0;left=0;bottom=0;right=0;points=[[0,0.5],[1,0.5]];portConstraint=eastwest;" parent="ya6E0TkoqodQedfXfJdZ-17" vertex="1">
                    <mxGeometry y="180" width="200" height="30" as="geometry"/>
                </mxCell>
                <mxCell id="ya6E0TkoqodQedfXfJdZ-34" value="" style="shape=partialRectangle;connectable=0;fillColor=none;top=0;left=0;bottom=0;right=0;editable=1;overflow=hidden;" parent="ya6E0TkoqodQedfXfJdZ-33" vertex="1">
                    <mxGeometry width="30" height="30" as="geometry"/>
                </mxCell>
                <mxCell id="ya6E0TkoqodQedfXfJdZ-35" value="" style="shape=partialRectangle;connectable=0;fillColor=none;top=0;left=0;bottom=0;right=0;align=left;spacingLeft=6;overflow=hidden;" parent="ya6E0TkoqodQedfXfJdZ-33" vertex="1">
                    <mxGeometry x="30" width="170" height="30" as="geometry"/>
                </mxCell>
                <mxCell id="ya6E0TkoqodQedfXfJdZ-36" value="Orders" style="shape=table;startSize=30;container=1;collapsible=1;childLayout=tableLayout;fixedRows=1;rowLines=0;fontStyle=1;align=center;resizeLast=1;" parent="1" vertex="1">
                    <mxGeometry x="550" y="80" width="210" height="220" as="geometry"/>
                </mxCell>
                <mxCell id="ya6E0TkoqodQedfXfJdZ-37" value="" style="shape=partialRectangle;collapsible=0;dropTarget=0;pointerEvents=0;fillColor=none;top=0;left=0;bottom=1;right=0;points=[[0,0.5],[1,0.5]];portConstraint=eastwest;" parent="ya6E0TkoqodQedfXfJdZ-36" vertex="1">
                    <mxGeometry y="30" width="210" height="30" as="geometry"/>
                </mxCell>
                <mxCell id="ya6E0TkoqodQedfXfJdZ-38" value="PK" style="shape=partialRectangle;connectable=0;fillColor=none;top=0;left=0;bottom=0;right=0;fontStyle=1;overflow=hidden;" parent="ya6E0TkoqodQedfXfJdZ-37" vertex="1">
                    <mxGeometry width="30" height="30" as="geometry"/>
                </mxCell>
                <mxCell id="ya6E0TkoqodQedfXfJdZ-39" value="ID SERIAL" style="shape=partialRectangle;connectable=0;fillColor=none;top=0;left=0;bottom=0;right=0;align=left;spacingLeft=6;fontStyle=5;overflow=hidden;" parent="ya6E0TkoqodQedfXfJdZ-37" vertex="1">
                    <mxGeometry x="30" width="180" height="30" as="geometry"/>
                </mxCell>
                <mxCell id="ya6E0TkoqodQedfXfJdZ-40" value="" style="shape=partialRectangle;collapsible=0;dropTarget=0;pointerEvents=0;fillColor=none;top=0;left=0;bottom=0;right=0;points=[[0,0.5],[1,0.5]];portConstraint=eastwest;" parent="ya6E0TkoqodQedfXfJdZ-36" vertex="1">
                    <mxGeometry y="60" width="210" height="30" as="geometry"/>
                </mxCell>
                <mxCell id="ya6E0TkoqodQedfXfJdZ-41" value="FK" style="shape=partialRectangle;connectable=0;fillColor=none;top=0;left=0;bottom=0;right=0;editable=1;overflow=hidden;" parent="ya6E0TkoqodQedfXfJdZ-40" vertex="1">
                    <mxGeometry width="30" height="30" as="geometry"/>
                </mxCell>
                <mxCell id="ya6E0TkoqodQedfXfJdZ-42" value="user_id INTEGER" style="shape=partialRectangle;connectable=0;fillColor=none;top=0;left=0;bottom=0;right=0;align=left;spacingLeft=6;overflow=hidden;" parent="ya6E0TkoqodQedfXfJdZ-40" vertex="1">
                    <mxGeometry x="30" width="180" height="30" as="geometry"/>
                </mxCell>
                <mxCell id="ya6E0TkoqodQedfXfJdZ-43" value="" style="shape=partialRectangle;collapsible=0;dropTarget=0;pointerEvents=0;fillColor=none;top=0;left=0;bottom=0;right=0;points=[[0,0.5],[1,0.5]];portConstraint=eastwest;" parent="ya6E0TkoqodQedfXfJdZ-36" vertex="1">
                    <mxGeometry y="90" width="210" height="30" as="geometry"/>
                </mxCell>
                <mxCell id="ya6E0TkoqodQedfXfJdZ-44" value="" style="shape=partialRectangle;connectable=0;fillColor=none;top=0;left=0;bottom=0;right=0;editable=1;overflow=hidden;" parent="ya6E0TkoqodQedfXfJdZ-43" vertex="1">
                    <mxGeometry width="30" height="30" as="geometry"/>
                </mxCell>
                <mxCell id="ya6E0TkoqodQedfXfJdZ-45" value="dish_list ARRAY" style="shape=partialRectangle;connectable=0;fillColor=none;top=0;left=0;bottom=0;right=0;align=left;spacingLeft=6;overflow=hidden;" parent="ya6E0TkoqodQedfXfJdZ-43" vertex="1">
                    <mxGeometry x="30" width="180" height="30" as="geometry"/>
                </mxCell>
                <mxCell id="ya6E0TkoqodQedfXfJdZ-46" value="" style="shape=partialRectangle;collapsible=0;dropTarget=0;pointerEvents=0;fillColor=none;top=0;left=0;bottom=0;right=0;points=[[0,0.5],[1,0.5]];portConstraint=eastwest;" parent="ya6E0TkoqodQedfXfJdZ-36" vertex="1">
                    <mxGeometry y="120" width="210" height="30" as="geometry"/>
                </mxCell>
                <mxCell id="ya6E0TkoqodQedfXfJdZ-47" value="" style="shape=partialRectangle;connectable=0;fillColor=none;top=0;left=0;bottom=0;right=0;editable=1;overflow=hidden;" parent="ya6E0TkoqodQedfXfJdZ-46" vertex="1">
                    <mxGeometry width="30" height="30" as="geometry"/>
                </mxCell>
                <mxCell id="ya6E0TkoqodQedfXfJdZ-48" value="duration INTEGER" style="shape=partialRectangle;connectable=0;fillColor=none;top=0;left=0;bottom=0;right=0;align=left;spacingLeft=6;overflow=hidden;" parent="ya6E0TkoqodQedfXfJdZ-46" vertex="1">
                    <mxGeometry x="30" width="180" height="30" as="geometry"/>
                </mxCell>
                <mxCell id="2" value="" style="shape=partialRectangle;collapsible=0;dropTarget=0;pointerEvents=0;fillColor=none;top=0;left=0;bottom=0;right=0;points=[[0,0.5],[1,0.5]];portConstraint=eastwest;" vertex="1" parent="ya6E0TkoqodQedfXfJdZ-36">
                    <mxGeometry y="150" width="210" height="30" as="geometry"/>
                </mxCell>
                <mxCell id="3" value="" style="shape=partialRectangle;connectable=0;fillColor=none;top=0;left=0;bottom=0;right=0;editable=1;overflow=hidden;" vertex="1" parent="2">
                    <mxGeometry width="30" height="30" as="geometry"/>
                </mxCell>
                <mxCell id="4" value="start_at TIMESTAMP" style="shape=partialRectangle;connectable=0;fillColor=none;top=0;left=0;bottom=0;right=0;align=left;spacingLeft=6;overflow=hidden;" vertex="1" parent="2">
                    <mxGeometry x="30" width="180" height="30" as="geometry"/>
                </mxCell>
                <mxCell id="5" value="" style="shape=partialRectangle;collapsible=0;dropTarget=0;pointerEvents=0;fillColor=none;top=0;left=0;bottom=0;right=0;points=[[0,0.5],[1,0.5]];portConstraint=eastwest;" vertex="1" parent="ya6E0TkoqodQedfXfJdZ-36">
                    <mxGeometry y="180" width="210" height="30" as="geometry"/>
                </mxCell>
                <mxCell id="6" value="" style="shape=partialRectangle;connectable=0;fillColor=none;top=0;left=0;bottom=0;right=0;editable=1;overflow=hidden;" vertex="1" parent="5">
                    <mxGeometry width="30" height="30" as="geometry"/>
                </mxCell>
                <mxCell id="7" value="completed_at TimeSTAMP" style="shape=partialRectangle;connectable=0;fillColor=none;top=0;left=0;bottom=0;right=0;align=left;spacingLeft=6;overflow=hidden;" vertex="1" parent="5">
                    <mxGeometry x="30" width="180" height="30" as="geometry"/>
                </mxCell>
                <mxCell id="ya6E0TkoqodQedfXfJdZ-49" value="" style="edgeStyle=entityRelationEdgeStyle;fontSize=12;html=1;endArrow=ERoneToMany;exitX=1;exitY=0.5;exitDx=0;exitDy=0;entryX=0;entryY=0.5;entryDx=0;entryDy=0;" parent="1" source="ya6E0TkoqodQedfXfJdZ-2" target="ya6E0TkoqodQedfXfJdZ-40" edge="1">
                    <mxGeometry width="100" height="100" relative="1" as="geometry">
                        <mxPoint x="180" y="530" as="sourcePoint"/>
                        <mxPoint x="280" y="430" as="targetPoint"/>
                    </mxGeometry>
                </mxCell>
                <mxCell id="ya6E0TkoqodQedfXfJdZ-50" value="" style="edgeStyle=entityRelationEdgeStyle;fontSize=12;html=1;endArrow=ERoneToMany;entryX=1;entryY=0.5;entryDx=0;entryDy=0;exitX=0;exitY=0.5;exitDx=0;exitDy=0;" parent="1" source="ya6E0TkoqodQedfXfJdZ-43" target="ya6E0TkoqodQedfXfJdZ-18" edge="1">
                    <mxGeometry width="100" height="100" relative="1" as="geometry">
                        <mxPoint x="380" y="210" as="sourcePoint"/>
                        <mxPoint x="620" y="380" as="targetPoint"/>
                    </mxGeometry>
                </mxCell>
            </root>
        </mxGraphModel>
    </diagram>
</mxfile>
